<?xml version="1.0" encoding="UTF-8" standalone="no"?>
<!DOCTYPE svg PUBLIC "-//W3C//DTD SVG 1.1//EN" "http://www.w3.org/Graphics/SVG/1.1/DTD/svg11.dtd">
<svg width="100%" height="100%" viewBox="0 0 18 18" version="1.1" xmlns="http://www.w3.org/2000/svg" xmlns:xlink="http://www.w3.org/1999/xlink" xml:space="preserve" style="fill-rule:evenodd;clip-rule:evenodd;stroke-linecap:square;stroke-miterlimit:1.5;">
    <g id="ArtBoard1" transform="matrix(0.5625,0,0,0.5625,0,0)">
        <rect x="0" y="0" width="32" height="32" style="fill:none;"/>
        <g transform="matrix(1,0,0,1,-1.08463,-1.63617)">
            <g transform="matrix(1.77778,0,0,1.77778,-11.3976,-9.59752)">
                <path d="M24.991,10.065C24.991,7.997 23.312,6.319 21.245,6.319L10.767,6.319C8.7,6.319 7.021,7.997 7.021,10.065L7.021,20.543C7.021,22.61 8.7,24.288 10.767,24.288L21.245,24.288C23.312,24.288 24.991,22.61 24.991,20.543L24.991,10.065Z" style="fill:rgb(107,174,48);"/>
            </g>
            <g transform="matrix(2.04236,0,0,1.77778,-16.199,-8.76368)">
                <path d="M10.761,16.26L10.761,20.877L21.806,20.877L21.806,16.26" style="fill:none;stroke:white;stroke-width:0.93px;"/>
            </g>
            <g transform="matrix(1.77778,0,0,1.77778,-11.8908,-7.83153)">
                <g transform="matrix(-0.82241,-1.00716e-16,1.00716e-16,-0.82241,31.3304,27.9688)">
                    <path d="M14.787,16.884L18.296,13.9L21.806,16.884" style="fill:none;stroke:white;stroke-width:1.22px;"/>
                </g>
                <path d="M16.283,8.254L16.283,15.735" style="fill:none;stroke:white;stroke-width:1px;"/>
            </g>
        </g>
    </g>
</svg>
