<?xml version="1.0" encoding="UTF-8" standalone="no"?><!DOCTYPE svg PUBLIC "-//W3C//DTD SVG 1.1//EN" "http://www.w3.org/Graphics/SVG/1.1/DTD/svg11.dtd"><svg width="16px" height="16px" viewBox="0 0 16 16" version="1.1" xmlns="http://www.w3.org/2000/svg" xmlns:xlink="http://www.w3.org/1999/xlink" xml:space="preserve" xmlns:serif="http://www.serif.com/" style="fill-rule:evenodd;clip-rule:evenodd;stroke-miterlimit:10;"><rect id="filter" x="0.225" y="0" width="16" height="16" style="fill:none;"/><clipPath id="_clip1"><rect x="0.225" y="0" width="16" height="16"/></clipPath><g clip-path="url(#_clip1)"><g id="Filter"><path id="Triangle" d="M10.114,12.567l-4.452,-4.453l8.906,0l-4.454,4.453Z" style="fill:#a8e58f;fill-rule:nonzero;"/><path id="Rectangle_2" d="M9.558,11.454l1.115,0l0,4.453l-1.115,-0.968l0,-3.485Z" style="fill:#a8e58f;fill-rule:nonzero;"/><g id="Rectangle_3"><rect x="3.735" y="1.992" width="7.493" height="1.67" style="fill:none;"/><rect x="3.989" y="2.245" width="6.986" height="1.163" style="fill:none;stroke:#e1e1e1;stroke-width:0.51px;"/></g><g id="Rectangle_3_Copy"><rect x="3.735" y="4.775" width="7.493" height="1.67" style="fill:none;"/><rect x="3.989" y="5.028" width="6.986" height="1.163" style="fill:none;stroke:#e1e1e1;stroke-width:0.51px;"/></g><path id="Path_2" d="M9.007,13.681l-6.674,0l0,-13.343l10.032,0l0,7.212" style="fill:none;stroke:#e1e1e1;stroke-width:0.51px;"/><path id="Path_3" d="M11.233,13.681l1.114,0l0,-2.892" style="fill:none;stroke:#e1e1e1;stroke-width:0.51px;"/><path id="Rectangle" d="M11.913,10.766l0.802,-0.799l0,0.827l-0.802,0.795l0,-0.823Z" style="fill:#fff;fill-rule:nonzero;"/></g></g></svg>