<?xml version="1.0" encoding="UTF-8" standalone="no"?>
<!DOCTYPE svg PUBLIC "-//W3C//DTD SVG 1.1//EN" "http://www.w3.org/Graphics/SVG/1.1/DTD/svg11.dtd">
<svg width="100%" height="100%" viewBox="0 0 32 32" version="1.1" xmlns="http://www.w3.org/2000/svg" xmlns:xlink="http://www.w3.org/1999/xlink" xml:space="preserve" xmlns:serif="http://www.serif.com/" style="fill-rule:evenodd;clip-rule:evenodd;stroke-linejoin:round;stroke-miterlimit:1.41421;">
    <g transform="matrix(1,0,0,1,-6858,-2129)">
        <g id="ArtBoard4" transform="matrix(0.787739,0,0,0.787739,1455.4,451.144)">
            <rect x="6858.36" y="2129.96" width="40.623" height="40.623" style="fill:none;"/>
            <g transform="matrix(1.33331,0,0,3.03508,6712.25,1734.41)">
                <g transform="matrix(5.8376,0,0,2.56445,-26410.3,-318.372)">
                    <circle cx="4545.54" cy="177.578" r="2.535" style="fill:rgb(168,229,143);"/>
                </g>
                <g transform="matrix(5.33149,0,0,2.34212,-908.779,-277.685)">
                    <g transform="matrix(0.47056,0,0,1,-1944.8,0.0113642)">
                        <rect x="4544.54" y="175.862" width="0.814" height="2.38" style="fill:white;"/>
                    </g>
                    <g transform="matrix(2.88135e-17,0.47056,-1,6.12323e-17,370.919,-1961.6)">
                        <rect x="4544.54" y="175.862" width="0.814" height="2.38" style="fill:white;"/>
                    </g>
                </g>
            </g>
        </g>
    </g>
</svg>
