<svg xmlns="http://www.w3.org/2000/svg" viewBox="0 0 16 16"><defs><style>.cls-1,.cls-2{fill:#a8e58f;fill-rule:evenodd;}.cls-2{stroke:#fff;stroke-miterlimit:10;stroke-width:0.75px;}.cls-3{fill:#fff;}</style></defs><polygon class="cls-1" points="8.29 0 0 0 0 15.27 12 15.27 12 3.71 8.29 0"/><path class="cls-2" d="M10.18.36" transform="translate(-2 -0.36)"/><path class="cls-2" d="M14,4.18" transform="translate(-2 -0.36)"/><polyline class="cls-2" points="8.18 0 8.18 3.82 12 3.82"/><path class="cls-3" d="M5.76,9.13a1.4,1.4,0,0,1-.92.27H4.07v1.32H3.31V7.05H4.89a1.33,1.33,0,0,1,.87.28,1.14,1.14,0,0,1,.32.88A1.15,1.15,0,0,1,5.76,9.13ZM5.17,7.81a.6.6,0,0,0-.4-.12h-.7V8.77h.7a.55.55,0,0,0,.4-.13.54.54,0,0,0,.15-.42A.5.5,0,0,0,5.17,7.81Z" transform="translate(-2 -0.36)"/><path class="cls-3" d="M8.85,7.13a1.12,1.12,0,0,1,.62.47,1.66,1.66,0,0,1,.27.59,3.26,3.26,0,0,1,.07.61A2.42,2.42,0,0,1,9.51,10a1.32,1.32,0,0,1-1.23.68H6.7V7.05H8.28A1.82,1.82,0,0,1,8.85,7.13Zm-1.41.56v2.39h.71a.76.76,0,0,0,.76-.53A1.86,1.86,0,0,0,9,8.85,1.69,1.69,0,0,0,8.85,8a.75.75,0,0,0-.7-.3Z" transform="translate(-2 -0.36)"/><path class="cls-3" d="M10.38,7.06H13V7.7H11.14v.85h1.63v.63H11.14v1.54h-.76Z" transform="translate(-2 -0.36)"/></svg>